<!--?xml version="1.0" encoding="utf-8"?-->
<!-- Generator: Adobe Illustrator 22.1.0, SVG Export Plug-In . SVG Version: 6.00 Build 0)  -->
<svg version="1.1" id="_x37_" xmlns="http://www.w3.org/2000/svg" xmlns:xlink="http://www.w3.org/1999/xlink" x="0px" y="0px" viewBox="0 0 629.479 800" style="width: 194px;" xml:space="preserve">
<style type="text/css">
	.st0{fill:#E95513;}
</style>
<g>
	<path class="st0" d="M130.242,757.747c-159.498-102.15-181.669-354.438-4.29-504.945
		c69.102-58.631,106.609-106.401,135.835-154.213c39.716-64.985,12.849-99.317,34.58-96.421
		c80.646,10.756,196.253,185.491,125.207,304.396c-48.783,81.623-45.209,112.566,1.144,133.805
		c64.524,29.567,106.356-90.812,84.856-166.062c96.744,10.756,215.105,315.29-2.798,479.854
		c-68.618,51.825-133.569,53.109-125.081,27.63c2.707-8.06,71.625-82.391,73.106-133.366
		c2.556-88.146-89.597-12.543-146.938-107.524c-21.004-34.777-19.257-99.653-34.049-123.651
		c-11.797-19.083-55.56-19.707-98.572,32.262c-42.953,51.881-92.997,193.06,37.102,302.695
		C271.444,803.708,185.478,793.137,130.242,757.747z"></path>
</g>
</svg>
