<?xml version="1.0" standalone="no"?>
<!DOCTYPE svg PUBLIC "-//W3C//DTD SVG 20010904//EN"
 "http://www.w3.org/TR/2001/REC-SVG-20010904/DTD/svg10.dtd">
<svg version="1.0" xmlns="http://www.w3.org/2000/svg"
 width="128.000000pt" height="128.000000pt" viewBox="0 0 128.000000 128.000000"
 preserveAspectRatio="xMidYMid meet">
<metadata>
Created by potrace 1.14, written by Peter Selinger 2001-2017
</metadata>
<g transform="translate(0.000000,128.000000) scale(0.100000,-0.100000)"
fill="#000000" stroke="none">
<path d="M510 1267 c-53 -25 -90 -53 -90 -67 0 -27 44 -92 82 -123 49 -39 103
-41 152 -3 68 52 108 137 69 149 -10 4 -30 16 -45 28 -31 26 -128 35 -168 16z
m5 -88 c0 -7 -8 -15 -17 -17 -18 -3 -25 18 -11 32 10 10 28 1 28 -15z m168 15
c9 -10 -4 -34 -19 -34 -8 0 -14 6 -14 13 0 22 19 35 33 21z"/>
<path d="M347 1182 c-32 -22 -78 -83 -97 -130 -8 -21 -11 -57 -8 -101 7 -93
12 -100 198 -275 39 -36 46 -49 48 -85 2 -28 -4 -54 -16 -75 l-20 -33 99 -1
99 -1 0 32 c1 56 37 115 127 207 109 112 143 171 143 249 0 85 -45 171 -111
213 l-26 17 -13 -39 c-18 -54 -91 -130 -145 -150 -19 -7 -22 -14 -19 -46 7
-77 15 -109 31 -126 14 -15 14 -18 1 -18 -8 0 -23 9 -33 20 -17 19 -18 19 -43
0 -34 -27 -48 -25 -28 5 9 13 20 52 25 86 8 61 8 62 -21 78 -76 42 -91 55
-128 112 -22 34 -37 65 -34 70 8 13 2 11 -29 -9z"/>
<path d="M329 412 c-23 -21 -31 -37 -32 -64 -1 -41 24 -85 57 -98 32 -12 406
-11 437 1 48 19 72 85 48 132 -28 54 -38 57 -266 57 l-213 0 -31 -28z"/>
<path d="M1050 334 c-36 -13 -83 -24 -105 -24 -46 0 -54 -5 -78 -42 -17 -28
-17 -28 7 -28 13 0 47 -5 75 -12 47 -11 52 -10 85 16 34 26 105 117 89 115 -4
-1 -37 -12 -73 -25z"/>
<path d="M201 186 c-69 -38 -66 -138 6 -175 15 -7 133 -11 370 -11 387 0 381
-1 410 67 12 31 12 38 -4 71 -10 20 -29 42 -43 49 -37 18 -706 18 -739 -1z"/>
</g>
</svg>
