<!--?xml version="1.0" encoding="utf-8"?-->
<!-- Generator: Adobe Illustrator 22.1.0, SVG Export Plug-In . SVG Version: 6.00 Build 0)  -->
<svg version="1.1" id="_x32_" xmlns="http://www.w3.org/2000/svg" xmlns:xlink="http://www.w3.org/1999/xlink" x="0px" y="0px" viewBox="0 0 665.682 800" style="width: 259px;" xml:space="preserve">
<style type="text/css">
	.st0{fill:#040000;}
</style>
<g>
	<path class="st0" d="M659.479,407.441c-8.256-6.799-7.855-7.736-8.215-20.121c-0.363-12.371,11.038-34.26,1.284-42.789
		c-9.746-8.545-43.081-40.302-56.279-59.18c-13.191-18.87-114.733-102.598-223.579-102.702
		c-108.839-0.135-177.268,41.163-201.05,28.957c-23.764-12.183-65.681-110.902-78.927-137.568
		C79.455,47.357,40.965-6.574,19.11,3.161C-2.74,12.873,69.136,230.821,72.248,249.895c3.092,19.087,5.047,27.677-7.418,33.562
		c-12.468,5.878-54.762,53.692-54.886,72.525c-11.405,21.882-10.03,42.46-1.928,46.967c-3.969,9.451,5.455,26.734,4.965,33.197
		c-0.487,6.469,2.811,35.636,14.553,39.448c3.048,11.27,2.37,28.777,11.423,33.683c9.054,4.904,11.36,25.88,21.357,31.181
		c7.769,13.262,16.726,23.685,31.451,30.987c14.711,7.287,43.609,20.518,54.699,28.508c11.101,7.989,22.816,46.24,29.268,81.173
		c6.451,34.918,14.434,92.721,19.915,106.132c5.478,13.419,22.581,15.037,27.576,0.457c4.333-12.596,31.878-40.886,34.244-89.734
		c1.274-26.081,31.855-61.614,49.996-65.126c18.129-3.497,168.704-40.115,207.996-56.963
		c39.295-16.842,95.237-73.371,109.869-95.013c14.632-21.626,31.406-45.708,31.406-45.708
		C663.445,432.438,667.742,414.241,659.479,407.441z M539.64,372.718c-18.462,0-33.431-14.954-33.431-33.428
		c0-18.459,14.97-33.436,33.431-33.436c18.47,0,33.435,14.977,33.435,33.436C573.075,357.764,558.11,372.718,539.64,372.718z" style="fill: rgb(81, 39, 13);"></path>
	<path class="st0" d="M560.735,339.432c0,11.547-9.346,20.893-20.892,20.893c-11.54,0-20.893-9.346-20.893-20.893
		c0-11.532,9.354-20.892,20.893-20.892C551.389,318.54,560.735,327.9,560.735,339.432z" style="fill: rgb(81, 39, 13);"></path>
</g>
</svg>
